<svg xmlns="http://www.w3.org/2000/svg" xmlns:xlink="http://www.w3.org/1999/xlink" version="1.1" width="256" height="256" viewBox="0 0 256 256" xml:space="preserve">

<defs>
</defs>
<g style="stroke: none; stroke-width: 0; stroke-dasharray: none; stroke-linecap: butt; stroke-linejoin: miter; stroke-miterlimit: 10; fill: none; fill-rule: nonzero; opacity: 1;" transform="translate(1.4065934065934016 1.4065934065934016) scale(2.81 2.81)" >
	<circle cx="56.519000000000005" cy="28.009" r="17.959" style="stroke: none; stroke-width: 1; stroke-dasharray: none; stroke-linecap: butt; stroke-linejoin: miter; stroke-miterlimit: 10; fill: rgb(248,204,29); fill-rule: nonzero; opacity: 1;" transform="  matrix(1 0 0 1 0 0) "/>
	<path d="M 62.825 41.849 c -0.39 -0.39 -0.862 -0.671 -1.38 -0.827 c 0.479 -1.183 0.241 -2.592 -0.717 -3.55 c -0.391 -0.39 -0.862 -0.67 -1.377 -0.823 c 0.448 -1.171 0.202 -2.549 -0.74 -3.492 c -0.319 -0.319 -0.688 -0.559 -1.083 -0.718 l 1.808 -1.807 c 1.276 -1.277 1.276 -3.354 0 -4.63 c -1.238 -1.236 -3.394 -1.237 -4.63 0 L 43.724 36.983 c -0.226 -1.463 -1.434 -2.639 -2.973 -2.763 c -0.87 -0.071 -1.718 0.203 -2.385 0.77 c -0.666 0.567 -1.071 1.359 -1.142 2.23 l -0.821 10.194 c -0.025 0.221 -0.043 0.444 -0.056 0.718 c -0.118 2.819 0.958 5.58 2.952 7.574 c 1.91 1.909 4.448 2.961 7.148 2.961 c 2.701 0 5.24 -1.052 7.149 -2.961 l 9.124 -9.125 l 0.104 -0.103 C 64.102 45.202 64.102 43.125 62.825 41.849 z M 61.413 45.063 l -9.229 9.229 c -3.162 3.161 -8.307 3.163 -11.47 0 c -1.599 -1.6 -2.462 -3.814 -2.367 -6.114 c 0.008 -0.181 0.023 -0.361 0.046 -0.572 l 0.824 -10.224 c 0.027 -0.339 0.186 -0.648 0.445 -0.868 c 0.232 -0.198 0.521 -0.304 0.823 -0.304 c 0.035 0 0.07 0.001 0.104 0.004 c 0.7 0.057 1.224 0.672 1.168 1.372 l -0.149 1.851 c -0.034 0.418 0.196 0.813 0.577 0.988 s 0.831 0.095 1.126 -0.201 L 56.12 27.416 c 0.481 -0.481 1.32 -0.48 1.802 0 c 0.496 0.497 0.496 1.305 0 1.802 l -3.936 3.935 c -0.002 0.001 -0.003 0.003 -0.005 0.005 l -4.835 4.835 c -0.391 0.391 -0.391 1.023 0 1.414 c 0.195 0.195 0.451 0.293 0.707 0.293 s 0.512 -0.098 0.707 -0.293 l 4.835 -4.835 l 0.003 -0.003 c 0.48 -0.478 1.318 -0.478 1.799 0.003 c 0.496 0.497 0.496 1.305 0 1.802 l -1.099 1.099 l -3.736 3.736 c -0.391 0.39 -0.391 1.023 0 1.414 c 0.195 0.195 0.451 0.293 0.707 0.293 s 0.512 -0.098 0.707 -0.293 l 3.736 -3.736 c 0.481 -0.481 1.32 -0.48 1.802 0 c 0.496 0.497 0.496 1.305 0 1.802 l -1.111 1.111 c -0.012 0.011 -0.023 0.023 -0.035 0.034 l -0.097 0.097 c 0 0 0 0.001 -0.001 0.001 l -2.492 2.492 c -0.391 0.39 -0.391 1.023 0 1.414 c 0.195 0.195 0.451 0.293 0.707 0.293 s 0.512 -0.098 0.707 -0.293 l 2.495 -2.495 l 0.118 -0.118 c 0.233 -0.222 0.542 -0.344 0.875 -0.344 c 0.004 0 0.007 0 0.01 0 c 0.351 0.002 0.678 0.138 0.921 0.381 C 61.907 43.759 61.907 44.568 61.413 45.063 z" style="stroke: none; stroke-width: 1; stroke-dasharray: none; stroke-linecap: butt; stroke-linejoin: miter; stroke-miterlimit: 10; fill: rgb(0,0,0); fill-rule: nonzero; opacity: 1;" transform=" matrix(1 0 0 1 0 0) " stroke-linecap="round" />
	<path d="M 13.631 82.493 c -0.256 0 -0.512 -0.098 -0.707 -0.293 c -0.391 -0.391 -0.391 -1.023 0 -1.414 l 21.502 -21.502 c 0.391 -0.391 1.023 -0.391 1.414 0 s 0.391 1.023 0 1.414 L 14.338 82.2 C 14.143 82.396 13.887 82.493 13.631 82.493 z" style="stroke: none; stroke-width: 1; stroke-dasharray: none; stroke-linecap: butt; stroke-linejoin: miter; stroke-miterlimit: 10; fill: rgb(248,204,29); fill-rule: nonzero; opacity: 1;" transform=" matrix(1 0 0 1 0 0) " stroke-linecap="round" />
	<path d="M 31.851 76.823 c -0.256 0 -0.512 -0.098 -0.707 -0.293 c -0.391 -0.391 -0.391 -1.023 0 -1.414 l 12.153 -12.153 c 0.391 -0.391 1.023 -0.391 1.414 0 s 0.391 1.023 0 1.414 L 32.558 76.53 C 32.363 76.726 32.107 76.823 31.851 76.823 z" style="stroke: none; stroke-width: 1; stroke-dasharray: none; stroke-linecap: butt; stroke-linejoin: miter; stroke-miterlimit: 10; fill: rgb(248,204,29); fill-rule: nonzero; opacity: 1;" transform=" matrix(1 0 0 1 0 0) " stroke-linecap="round" />
	<path d="M 10.816 85.654 H 9.47 v -1.347 c 0 -0.553 -0.448 -1 -1 -1 s -1 0.447 -1 1 v 1.347 H 6.124 c -0.552 0 -1 0.447 -1 1 s 0.448 1 1 1 H 7.47 V 89 c 0 0.553 0.448 1 1 1 s 1 -0.447 1 -1 v -1.346 h 1.346 c 0.552 0 1 -0.447 1 -1 S 11.368 85.654 10.816 85.654 z" style="stroke: none; stroke-width: 1; stroke-dasharray: none; stroke-linecap: butt; stroke-linejoin: miter; stroke-miterlimit: 10; fill: rgb(248,204,29); fill-rule: nonzero; opacity: 1;" transform=" matrix(1 0 0 1 0 0) " stroke-linecap="round" />
	<path d="M 26.341 84.75 c -0.875 0 -1.751 -0.333 -2.417 -0.999 c -1.333 -1.333 -1.333 -3.503 0 -4.836 c 1.334 -1.332 3.502 -1.332 4.835 0 c 1.333 1.333 1.333 3.503 0 4.836 h 0 C 28.092 84.417 27.216 84.75 26.341 84.75 z M 28.051 83.044 h 0.01 H 28.051 z M 26.341 79.914 c -0.363 0 -0.727 0.139 -1.003 0.415 c -0.553 0.554 -0.553 1.454 0 2.008 c 0.553 0.553 1.453 0.553 2.006 0 l 0 0 c 0.554 -0.554 0.554 -1.454 0 -2.008 C 27.067 80.053 26.704 79.914 26.341 79.914 z" style="stroke: none; stroke-width: 1; stroke-dasharray: none; stroke-linecap: butt; stroke-linejoin: miter; stroke-miterlimit: 10; fill: rgb(248,204,29); fill-rule: nonzero; opacity: 1;" transform=" matrix(1 0 0 1 0 0) " stroke-linecap="round" />
	<path d="M 23.922 60.122 c -0.256 0 -0.512 -0.098 -0.707 -0.293 c -0.391 -0.391 -0.391 -1.023 0 -1.414 l 7.767 -7.767 c 0.391 -0.391 1.023 -0.391 1.414 0 s 0.391 1.023 0 1.414 l -7.767 7.767 C 24.434 60.024 24.178 60.122 23.922 60.122 z" style="stroke: none; stroke-width: 1; stroke-dasharray: none; stroke-linecap: butt; stroke-linejoin: miter; stroke-miterlimit: 10; fill: rgb(248,204,29); fill-rule: nonzero; opacity: 1;" transform=" matrix(1 0 0 1 0 0) " stroke-linecap="round" />
	<path d="M 18.131 68.331 c -0.875 0 -1.75 -0.333 -2.417 -1 c -1.333 -1.333 -1.333 -3.503 0 -4.836 c 1.334 -1.332 3.502 -1.332 4.835 0 c 1.333 1.333 1.333 3.503 0 4.836 h 0 C 19.882 67.997 19.006 68.331 18.131 68.331 z M 19.841 66.624 h 0.01 H 19.841 z M 18.131 63.494 c -0.364 0 -0.727 0.139 -1.004 0.415 c -0.553 0.554 -0.553 1.454 0 2.008 c 0.553 0.553 1.453 0.553 2.006 0 c 0.553 -0.554 0.553 -1.454 0 -2.008 C 18.857 63.633 18.495 63.494 18.131 63.494 z" style="stroke: none; stroke-width: 1; stroke-dasharray: none; stroke-linecap: butt; stroke-linejoin: miter; stroke-miterlimit: 10; fill: rgb(248,204,29); fill-rule: nonzero; opacity: 1;" transform=" matrix(1 0 0 1 0 0) " stroke-linecap="round" />
	<path d="M 65.081 54.622 c -0.425 0 -0.818 -0.272 -0.953 -0.698 c -0.167 -0.526 0.125 -1.088 0.651 -1.255 c 10.824 -3.428 18.097 -13.367 18.097 -24.731 C 82.876 13.636 71.24 2 56.938 2 S 31.001 13.636 31.001 27.938 c 0 3.114 0.546 6.159 1.623 9.051 c 0.193 0.518 -0.07 1.094 -0.588 1.286 c -0.519 0.193 -1.093 -0.071 -1.286 -0.588 c -1.161 -3.117 -1.749 -6.397 -1.749 -9.75 C 29.001 12.533 41.534 0 56.938 0 c 15.405 0 27.938 12.533 27.938 27.938 c 0 12.241 -7.834 22.945 -19.493 26.638 C 65.282 54.607 65.181 54.622 65.081 54.622 z" style="stroke: none; stroke-width: 1; stroke-dasharray: none; stroke-linecap: butt; stroke-linejoin: miter; stroke-miterlimit: 10; fill: rgb(0,0,0); fill-rule: nonzero; opacity: 1;" transform=" matrix(1 0 0 1 0 0) " stroke-linecap="round" />
	<path d="M 66.386 37.288 c -0.242 0 -0.484 -0.087 -0.677 -0.264 c -0.406 -0.374 -0.434 -1.006 -0.06 -1.413 c 2.01 -2.187 3.117 -5.028 3.117 -8.001 c 0 -6.522 -5.306 -11.828 -11.828 -11.828 c -6.521 0 -11.828 5.306 -11.828 11.828 c 0 0.552 -0.448 1 -1 1 s -1 -0.448 -1 -1 c 0 -7.625 6.203 -13.828 13.828 -13.828 s 13.828 6.203 13.828 13.828 c 0 3.476 -1.294 6.799 -3.645 9.355 C 66.925 37.179 66.655 37.288 66.386 37.288 z" style="stroke: none; stroke-width: 1; stroke-dasharray: none; stroke-linecap: butt; stroke-linejoin: miter; stroke-miterlimit: 10; fill: rgb(0,0,0); fill-rule: nonzero; opacity: 1;" transform=" matrix(1 0 0 1 0 0) " stroke-linecap="round" />
</g>
</svg>